<mxfile host="app.diagrams.net" modified="2023-04-19T10:56:21.309Z" agent="Mozilla/5.0 (Windows NT 10.0; Win64; x64) AppleWebKit/537.36 (KHTML, like Gecko) Chrome/112.0.0.0 Safari/537.36" etag="ovhg8qvsX5jZQ-QciSdk" version="21.1.8" type="device">
  <diagram name="Page-1" id="vid0gdPZUJopMk27MTib">
    <mxGraphModel dx="1822" dy="539" grid="1" gridSize="10" guides="1" tooltips="1" connect="1" arrows="1" fold="1" page="1" pageScale="1" pageWidth="850" pageHeight="1100" math="0" shadow="0">
      <root>
        <mxCell id="0" />
        <mxCell id="1" parent="0" />
        <mxCell id="0H1dbyX0xGHiwX5A8dUP-1" value="&lt;font style=&quot;font-size: 24px;&quot;&gt;&lt;b style=&quot;&quot;&gt;Human Elephant Conflict Mitigation System&lt;br&gt;HECMS&lt;/b&gt;&lt;/font&gt;" style="rounded=0;whiteSpace=wrap;html=1;" parent="1" vertex="1">
          <mxGeometry x="157" y="150" width="563" height="70" as="geometry" />
        </mxCell>
        <mxCell id="0H1dbyX0xGHiwX5A8dUP-2" value="&lt;b style=&quot;&quot;&gt;&lt;font style=&quot;font-size: 18px;&quot;&gt;Monitoring System&lt;/font&gt;&lt;/b&gt;" style="rounded=0;whiteSpace=wrap;html=1;" parent="1" vertex="1">
          <mxGeometry x="22" y="360" width="335" height="70" as="geometry" />
        </mxCell>
        <mxCell id="0H1dbyX0xGHiwX5A8dUP-3" value="&lt;b style=&quot;&quot;&gt;&lt;font style=&quot;font-size: 18px;&quot;&gt;Management System&lt;/font&gt;&lt;/b&gt;" style="rounded=0;whiteSpace=wrap;html=1;" parent="1" vertex="1">
          <mxGeometry x="520" y="360" width="335" height="70" as="geometry" />
        </mxCell>
        <mxCell id="0H1dbyX0xGHiwX5A8dUP-4" value="" style="endArrow=classic;html=1;rounded=0;exitX=0.5;exitY=1;exitDx=0;exitDy=0;entryX=0.5;entryY=0;entryDx=0;entryDy=0;" parent="1" source="0H1dbyX0xGHiwX5A8dUP-1" target="0H1dbyX0xGHiwX5A8dUP-2" edge="1">
          <mxGeometry width="50" height="50" relative="1" as="geometry">
            <mxPoint x="270" y="320" as="sourcePoint" />
            <mxPoint x="320" y="270" as="targetPoint" />
            <Array as="points">
              <mxPoint x="439" y="280" />
              <mxPoint x="190" y="280" />
            </Array>
          </mxGeometry>
        </mxCell>
        <mxCell id="0H1dbyX0xGHiwX5A8dUP-5" value="" style="endArrow=classic;html=1;rounded=0;exitX=0.5;exitY=1;exitDx=0;exitDy=0;entryX=0.5;entryY=0;entryDx=0;entryDy=0;" parent="1" source="0H1dbyX0xGHiwX5A8dUP-1" target="0H1dbyX0xGHiwX5A8dUP-3" edge="1">
          <mxGeometry width="50" height="50" relative="1" as="geometry">
            <mxPoint x="449" y="230" as="sourcePoint" />
            <mxPoint x="200" y="370" as="targetPoint" />
            <Array as="points">
              <mxPoint x="440" y="280" />
              <mxPoint x="688" y="280" />
            </Array>
          </mxGeometry>
        </mxCell>
        <mxCell id="0H1dbyX0xGHiwX5A8dUP-6" value="&lt;font style=&quot;font-size: 14px;&quot;&gt;&lt;b&gt;Send Email Alert&lt;/b&gt;&lt;/font&gt;" style="shape=parallelogram;perimeter=parallelogramPerimeter;whiteSpace=wrap;html=1;fixedSize=1;" parent="1" vertex="1">
          <mxGeometry x="93" y="535" width="193" height="30" as="geometry" />
        </mxCell>
        <mxCell id="0H1dbyX0xGHiwX5A8dUP-7" value="&lt;font style=&quot;font-size: 14px;&quot;&gt;&lt;b&gt;Send SMS Alert&lt;/b&gt;&lt;/font&gt;" style="shape=parallelogram;perimeter=parallelogramPerimeter;whiteSpace=wrap;html=1;fixedSize=1;" parent="1" vertex="1">
          <mxGeometry x="93" y="480" width="193" height="30" as="geometry" />
        </mxCell>
        <mxCell id="0H1dbyX0xGHiwX5A8dUP-8" value="&lt;span style=&quot;font-size: 14px;&quot;&gt;&lt;b&gt;Play Artificial Souds&lt;/b&gt;&lt;/span&gt;" style="shape=parallelogram;perimeter=parallelogramPerimeter;whiteSpace=wrap;html=1;fixedSize=1;" parent="1" vertex="1">
          <mxGeometry x="93" y="590" width="193" height="30" as="geometry" />
        </mxCell>
        <mxCell id="0H1dbyX0xGHiwX5A8dUP-9" value="" style="endArrow=classic;html=1;rounded=0;exitX=0.5;exitY=1;exitDx=0;exitDy=0;entryX=0.5;entryY=0;entryDx=0;entryDy=0;" parent="1" source="0H1dbyX0xGHiwX5A8dUP-2" target="0H1dbyX0xGHiwX5A8dUP-7" edge="1">
          <mxGeometry width="50" height="50" relative="1" as="geometry">
            <mxPoint x="590" y="650" as="sourcePoint" />
            <mxPoint x="640" y="600" as="targetPoint" />
          </mxGeometry>
        </mxCell>
        <mxCell id="0H1dbyX0xGHiwX5A8dUP-10" value="" style="endArrow=classic;html=1;rounded=0;exitX=0.5;exitY=1;exitDx=0;exitDy=0;" parent="1" source="0H1dbyX0xGHiwX5A8dUP-7" target="0H1dbyX0xGHiwX5A8dUP-6" edge="1">
          <mxGeometry width="50" height="50" relative="1" as="geometry">
            <mxPoint x="250" y="740" as="sourcePoint" />
            <mxPoint x="300" y="690" as="targetPoint" />
          </mxGeometry>
        </mxCell>
        <mxCell id="0H1dbyX0xGHiwX5A8dUP-11" value="" style="endArrow=classic;html=1;rounded=0;exitX=0.5;exitY=1;exitDx=0;exitDy=0;entryX=0.5;entryY=0;entryDx=0;entryDy=0;" parent="1" source="0H1dbyX0xGHiwX5A8dUP-6" target="0H1dbyX0xGHiwX5A8dUP-8" edge="1">
          <mxGeometry width="50" height="50" relative="1" as="geometry">
            <mxPoint x="310" y="760" as="sourcePoint" />
            <mxPoint x="360" y="710" as="targetPoint" />
          </mxGeometry>
        </mxCell>
        <mxCell id="0H1dbyX0xGHiwX5A8dUP-12" value="&lt;span style=&quot;font-size: 14px;&quot;&gt;&lt;b&gt;Create new Device&lt;/b&gt;&lt;/span&gt;" style="shape=parallelogram;perimeter=parallelogramPerimeter;whiteSpace=wrap;html=1;fixedSize=1;" parent="1" vertex="1">
          <mxGeometry x="591" y="525" width="193" height="30" as="geometry" />
        </mxCell>
        <mxCell id="0H1dbyX0xGHiwX5A8dUP-13" value="&lt;font style=&quot;font-size: 14px;&quot;&gt;&lt;b&gt;Analyze Data&lt;/b&gt;&lt;/font&gt;" style="shape=parallelogram;perimeter=parallelogramPerimeter;whiteSpace=wrap;html=1;fixedSize=1;" parent="1" vertex="1">
          <mxGeometry x="591" y="470" width="193" height="30" as="geometry" />
        </mxCell>
        <mxCell id="0H1dbyX0xGHiwX5A8dUP-14" value="&lt;span style=&quot;font-size: 14px;&quot;&gt;&lt;b&gt;Manage the System&lt;/b&gt;&lt;/span&gt;" style="shape=parallelogram;perimeter=parallelogramPerimeter;whiteSpace=wrap;html=1;fixedSize=1;" parent="1" vertex="1">
          <mxGeometry x="591" y="580" width="193" height="30" as="geometry" />
        </mxCell>
        <mxCell id="0H1dbyX0xGHiwX5A8dUP-15" value="" style="endArrow=classic;html=1;rounded=0;exitX=0.5;exitY=1;exitDx=0;exitDy=0;entryX=0.5;entryY=0;entryDx=0;entryDy=0;" parent="1" source="0H1dbyX0xGHiwX5A8dUP-3" target="0H1dbyX0xGHiwX5A8dUP-13" edge="1">
          <mxGeometry width="50" height="50" relative="1" as="geometry">
            <mxPoint x="900" y="790" as="sourcePoint" />
            <mxPoint x="950" y="740" as="targetPoint" />
          </mxGeometry>
        </mxCell>
        <mxCell id="0H1dbyX0xGHiwX5A8dUP-16" value="" style="endArrow=classic;html=1;rounded=0;exitX=0.5;exitY=1;exitDx=0;exitDy=0;entryX=0.5;entryY=0;entryDx=0;entryDy=0;" parent="1" source="0H1dbyX0xGHiwX5A8dUP-13" target="0H1dbyX0xGHiwX5A8dUP-12" edge="1">
          <mxGeometry width="50" height="50" relative="1" as="geometry">
            <mxPoint x="800" y="700" as="sourcePoint" />
            <mxPoint x="850" y="650" as="targetPoint" />
          </mxGeometry>
        </mxCell>
        <mxCell id="0H1dbyX0xGHiwX5A8dUP-17" value="" style="endArrow=classic;html=1;rounded=0;exitX=0.5;exitY=1;exitDx=0;exitDy=0;" parent="1" source="0H1dbyX0xGHiwX5A8dUP-12" target="0H1dbyX0xGHiwX5A8dUP-14" edge="1">
          <mxGeometry width="50" height="50" relative="1" as="geometry">
            <mxPoint x="820" y="710" as="sourcePoint" />
            <mxPoint x="870" y="660" as="targetPoint" />
          </mxGeometry>
        </mxCell>
        <mxCell id="0H1dbyX0xGHiwX5A8dUP-18" value="&lt;font style=&quot;font-size: 18px;&quot;&gt;&lt;b&gt;Database&lt;/b&gt;&lt;/font&gt;" style="shape=cylinder3;whiteSpace=wrap;html=1;boundedLbl=1;backgroundOutline=1;size=15;" parent="1" vertex="1">
          <mxGeometry x="381" y="450" width="115" height="170" as="geometry" />
        </mxCell>
        <mxCell id="0H1dbyX0xGHiwX5A8dUP-21" value="" style="endArrow=classic;startArrow=classic;html=1;rounded=0;entryX=1;entryY=0.5;entryDx=0;entryDy=0;exitX=0.5;exitY=0;exitDx=0;exitDy=0;exitPerimeter=0;" parent="1" source="0H1dbyX0xGHiwX5A8dUP-18" target="0H1dbyX0xGHiwX5A8dUP-2" edge="1">
          <mxGeometry width="50" height="50" relative="1" as="geometry">
            <mxPoint x="430" y="430" as="sourcePoint" />
            <mxPoint x="480" y="380" as="targetPoint" />
          </mxGeometry>
        </mxCell>
        <mxCell id="0H1dbyX0xGHiwX5A8dUP-22" value="" style="endArrow=classic;startArrow=classic;html=1;rounded=0;exitX=0.5;exitY=0;exitDx=0;exitDy=0;exitPerimeter=0;entryX=0;entryY=0.5;entryDx=0;entryDy=0;" parent="1" source="0H1dbyX0xGHiwX5A8dUP-18" target="0H1dbyX0xGHiwX5A8dUP-3" edge="1">
          <mxGeometry width="50" height="50" relative="1" as="geometry">
            <mxPoint x="460" y="420" as="sourcePoint" />
            <mxPoint x="510" y="370" as="targetPoint" />
          </mxGeometry>
        </mxCell>
        <mxCell id="0H1dbyX0xGHiwX5A8dUP-23" value="." style="text;html=1;strokeColor=none;fillColor=none;align=center;verticalAlign=middle;whiteSpace=wrap;rounded=0;" parent="1" vertex="1">
          <mxGeometry x="408.5" y="120" width="60" height="30" as="geometry" />
        </mxCell>
        <mxCell id="0H1dbyX0xGHiwX5A8dUP-24" value="." style="text;html=1;strokeColor=none;fillColor=none;align=center;verticalAlign=middle;whiteSpace=wrap;rounded=0;" parent="1" vertex="1">
          <mxGeometry x="840" y="390" width="60" height="30" as="geometry" />
        </mxCell>
        <mxCell id="0H1dbyX0xGHiwX5A8dUP-25" value="." style="text;html=1;strokeColor=none;fillColor=none;align=center;verticalAlign=middle;whiteSpace=wrap;rounded=0;" parent="1" vertex="1">
          <mxGeometry x="408.5" y="640" width="60" height="30" as="geometry" />
        </mxCell>
        <mxCell id="0H1dbyX0xGHiwX5A8dUP-26" value="." style="text;html=1;strokeColor=none;fillColor=none;align=center;verticalAlign=middle;whiteSpace=wrap;rounded=0;" parent="1" vertex="1">
          <mxGeometry x="-30" y="380" width="60" height="30" as="geometry" />
        </mxCell>
      </root>
    </mxGraphModel>
  </diagram>
</mxfile>
